<svg width="344.7312866210937px" height="122px" xmlns="http://www.w3.org/2000/svg" viewBox="77.63435668945314 14 344.7312866210937 122" style="background: rgba(0, 0, 0, 0);" preserveAspectRatio="xMidYMid"><defs><filter id="editing-metal-beveled"><feGaussianBlur stdDeviation="4" in="SourceAlpha" result="blur"></feGaussianBlur><feSpecularLighting surfaceScale="5" specularConstant="0.8" specularExponent="7.5" lighting-color="#fff" in="blur" result="specular"><fePointLight x="-250" y="-50" z="300"></fePointLight></feSpecularLighting><feComposite operator="in" in="specular" in2="SourceAlpha" result="comp"></feComposite><feComposite in="SourceGraphic" in2="comp" operator="arithmetic" k1="0" k2="1" k3="1" k4="0"></feComposite></filter></defs><g filter="url(#editing-metal-beveled)"><g transform="translate(130.9249820113182, 104.79000091552734)"><path d="M27.84-9.86L27.84-9.86L27.84-9.86Q29.06-8.32 29.06-5.34L29.06-5.34L29.06-5.34Q29.06-2.37 26.78-0.54L26.78-0.54L26.78-0.54Q24.51 1.28 20.54 1.28L20.54 1.28L20.54 1.28Q18.24 1.28 14.66 0.77L14.66 0.77L14.66 0.77Q7.62-0.32 5.60-0.32L5.60-0.32L5.60-0.32Q3.58-0.32 2.75-0.22L2.75-0.22L2.75-0.22Q1.92-0.13 0.58 0L0.58 0L8.32-42.24L22.34-42.24L15.94-7.04L15.94-7.04Q16.77-6.91 17.54-6.91L17.54-6.91L19.14-6.91L19.14-6.91Q24.51-6.91 27.84-9.86ZM48.70-3.52L48.70-3.52L48.70-3.52Q46.72 1.28 40.38 1.28L40.38 1.28L40.38 1.28Q37.12 1.28 35.07-0.96L35.07-0.96L35.07-0.96Q33.34-2.94 33.34-4.93L33.34-4.93L33.34-4.93Q33.34-10.11 35.71-20.22L35.71-20.22L38.08-32.64L51.07-33.92L47.17-13.70L47.17-13.70Q46.08-8.96 46.08-7.30L46.08-7.30L46.08-7.30Q46.08-3.65 48.70-3.52ZM39.23-41.54L39.23-41.54L39.23-41.54Q39.23-44.03 41.31-45.38L41.31-45.38L41.31-45.38Q43.39-46.72 46.40-46.72L46.40-46.72L46.40-46.72Q49.41-46.72 51.23-45.38L51.23-45.38L51.23-45.38Q53.06-44.03 53.06-41.54L53.06-41.54L53.06-41.54Q53.06-39.04 51.04-37.76L51.04-37.76L51.04-37.76Q49.02-36.48 46.02-36.48L46.02-36.48L46.02-36.48Q43.01-36.48 41.12-37.76L41.12-37.76L41.12-37.76Q39.23-39.04 39.23-41.54ZM53.31-3.07L53.31-3.07L61.25-44.80L74.24-46.08L72.26-36.29L72.26-36.29Q71.55-33.28 70.66-31.17L70.66-31.17L70.66-31.17Q72.06-32.96 75.14-33.66L75.14-33.66L75.14-33.66Q76.03-33.92 77.12-33.92L77.12-33.92L77.12-33.92Q83.07-33.92 86.34-30.30L86.34-30.30L86.34-30.30Q89.60-26.69 89.60-19.71L89.60-19.71L89.60-19.71Q89.60-10.62 84.42-4.93L84.42-4.93L84.42-4.93Q78.85 1.28 68.74 1.28L68.74 1.28L68.74 1.28Q61.76 1.28 56.51-1.02L56.51-1.02L56.51-1.02Q54.66-1.86 53.31-3.07ZM69.57-22.40L66.18-3.65L66.18-3.65Q67.52-2.50 69.18-2.50L69.18-2.50L69.18-2.50Q70.85-2.50 71.81-3.14L71.81-3.14L71.81-3.14Q72.77-3.78 73.47-5.06L73.47-5.06L73.47-5.06Q75.39-8.51 76.93-19.07L76.93-19.07L76.93-19.07Q77.38-22.08 77.38-25.09L77.38-25.09L77.38-25.09Q77.38-28.10 76.70-29.06L76.70-29.06L76.70-29.06Q76.03-30.02 74.75-30.02L74.75-30.02L74.75-30.02Q70.85-30.02 69.57-22.40L69.57-22.40ZM113.47-17.98L113.47-17.98L113.47-17.98Q115.78-22.08 115.78-26.24L115.78-26.24L115.78-26.24Q115.78-28.99 113.79-28.99L113.79-28.99L113.79-28.99Q112.26-28.99 110.66-26.37L110.66-26.37L110.66-26.37Q108.99-23.74 108.48-20.35L108.48-20.35L105.15 0L91.90 1.28L98.43-32.64L108.99-33.92L107.84-27.46L107.84-27.46Q110.98-33.92 118.02-33.92L118.02-33.92L118.02-33.92Q121.73-33.92 123.74-32L123.74-32L123.74-32Q125.76-30.08 125.76-26.14L125.76-26.14L125.76-26.14Q125.76-22.21 123.17-19.71L123.17-19.71L123.17-19.71Q120.58-17.22 116.16-17.22L116.16-17.22L116.16-17.22Q114.24-17.22 113.47-17.98ZM129.57-1.92L129.57-1.92L129.57-1.92Q128.06-3.58 127.39-6.21L127.39-6.21L127.39-6.21Q126.72-8.83 126.72-13.12L126.72-13.12L126.72-13.12Q126.72-17.41 128.19-21.31L128.19-21.31L128.19-21.31Q129.66-25.22 132.35-28.03L132.35-28.03L132.35-28.03Q137.86-33.92 146.94-33.92L146.94-33.92L146.94-33.92Q150.21-33.92 152.58-32.83L152.58-32.83L163.52-33.92L158.78-8.96L158.78-8.96Q158.59-8.19 158.59-6.78L158.59-6.78L158.59-6.78Q158.59-5.38 159.46-4.48L159.46-4.48L159.46-4.48Q160.32-3.58 161.60-3.46L161.60-3.46L161.60-3.46Q160.96-1.28 158.62 0L158.62 0L158.62 0Q156.29 1.28 153.66 1.28L153.66 1.28L153.66 1.28Q151.04 1.28 149.28 0.29L149.28 0.29L149.28 0.29Q147.52-0.70 147.01-2.37L147.01-2.37L147.01-2.37Q145.98-0.77 143.81 0.26L143.81 0.26L143.81 0.26Q141.63 1.28 138.72 1.28L138.72 1.28L138.72 1.28Q135.81 1.28 133.44 0.51L133.44 0.51L133.44 0.51Q131.07-0.26 129.57-1.92ZM143.07-27.90L143.07-27.90L143.07-27.90Q142.34-26.75 141.70-24.80L141.70-24.80L141.70-24.80Q141.06-22.85 140-17.63L140-17.63L140-17.63Q138.94-12.42 138.94-8.70L138.94-8.70L138.94-8.70Q138.94-4.99 139.52-3.90L139.52-3.90L139.52-3.90Q140.10-2.82 141.12-2.82L141.12-2.82L141.12-2.82Q143.17-2.82 144.67-4.77L144.67-4.77L144.67-4.77Q146.18-6.72 146.75-10.18L146.75-10.18L150.14-28.93L150.14-28.93Q148.80-30.08 147.23-30.08L147.23-30.08L147.23-30.08Q145.66-30.08 144.74-29.57L144.74-29.57L144.74-29.57Q143.81-29.06 143.07-27.90ZM187.01-17.98L187.01-17.98L187.01-17.98Q189.31-22.08 189.31-26.24L189.31-26.24L189.31-26.24Q189.31-28.99 187.33-28.99L187.33-28.99L187.33-28.99Q185.79-28.99 184.19-26.37L184.19-26.37L184.19-26.37Q182.53-23.74 182.02-20.35L182.02-20.35L178.69 0L165.44 1.28L171.97-32.64L182.53-33.92L181.38-27.46L181.38-27.46Q184.51-33.92 191.55-33.92L191.55-33.92L191.55-33.92Q195.26-33.92 197.28-32L197.28-32L197.28-32Q199.30-30.08 199.30-26.14L199.30-26.14L199.30-26.14Q199.30-22.21 196.70-19.71L196.70-19.71L196.70-19.71Q194.11-17.22 189.70-17.22L189.70-17.22L189.70-17.22Q187.78-17.22 187.01-17.98ZM220.67-7.23L220.67-7.23L220.67-7.23Q217.34-3.78 211.26-3.78L211.26-3.78L211.26-3.78Q203.65-3.78 202.05-9.34L202.05-9.34L202.05-9.34Q201.54-11.01 201.54-12.86L201.54-12.86L201.54-12.86Q201.54-14.72 201.92-16.64L201.92-16.64L204.93-32.64L217.92-33.92L214.40-15.30L214.40-15.30Q214.27-14.46 214.08-13.57L214.08-13.57L214.08-13.57Q213.89-12.67 213.89-11.74L213.89-11.74L213.89-11.74Q213.89-10.82 214.21-10.21L214.21-10.21L214.21-10.21Q214.53-9.60 214.98-9.22L214.98-9.22L214.98-9.22Q215.74-8.70 217.12-8.70L217.12-8.70L217.12-8.70Q218.50-8.70 219.68-10.37L219.68-10.37L219.68-10.37Q220.86-12.03 221.44-14.91L221.44-14.91L224.96-32.64L237.57-33.92L232.77-8.77L232.77-8.77Q230.40 3.52 225.54 8.38L225.54 8.38L225.54 8.38Q223.04 10.88 219.81 11.87L219.81 11.87L219.81 11.87Q216.58 12.86 212.42 12.86L212.42 12.86L212.42 12.86Q205.70 12.86 201.86 10.75L201.86 10.75L201.86 10.75Q198.02 8.64 198.02 5.12L198.02 5.12L198.02 5.12Q198.02 2.50 200 0.99L200 0.99L200 0.99Q201.98-0.51 205.06-0.51L205.06-0.51L205.06-0.51Q207.74-0.51 209.79 0.64L209.79 0.64L209.79 0.64Q211.01 1.34 211.58 2.24L211.58 2.24L211.58 2.24Q210.11 3.52 210.11 5.63L210.11 5.63L210.11 5.63Q210.11 8.45 212.67 8.45L212.67 8.45L212.67 8.45Q216.90 8.45 219.33-1.28L219.33-1.28L219.33-1.28Q220.03-4.16 220.67-7.23Z" fill="#fff"></path></g></g><style>text {
  font-size: 64px;
  font-family: Arial Black;
  dominant-baseline: central;
  text-anchor: middle;
}</style></svg>